# xmcd
#
# Track frame offsets:
#	187
#	16250
#	33950
#	45500
#	54275
#	68000
#	84275
#	100250
#	112250
#
# Disc length: 1834 seconds
#
# Revision: 2
# Processed by: cddbd v1.5.2PL0 Copyright (c) Steve Scherf et al.
# Submitted via: EasyCDDAExtractor 15.2.0.1
#
DISCID=65072809
DTITLE=Various Artist - Legendary Blues Singers
DYEAR=1994
DGENRE=Blues
TTITLE0=Buddy Guy - The Things I Used To Do
TTITLE1=Mississippi John Hurt - Here I Am Lord Send Me 
TTITLE2=John Lee Hooker - I Can't Quit You Baby 
TTITLE3=Skip James - I'm So Glad
TTITLE4=Sonny Terry and Brownie Mcghee - Long Gone 
TTITLE5=Junior Wells - Shake It Baby 
TTITLE6=Reverend Gary Davis - Samson and Delilah 
TTITLE7=Big Joe Turner and Pete Johnson - It's All Right Baby 
TTITLE8=Lightnin' Hopkins - Cotton Field Blues 
EXTD=
EXTT0=
EXTT1=
EXTT2=
EXTT3=
EXTT4=
EXTT5=
EXTT6=
EXTT7=
EXTT8=
PLAYORDER=
